<?xml version="1.0" ?><!DOCTYPE svg  PUBLIC '-//W3C//DTD SVG 1.1//EN'  'http://www.w3.org/Graphics/SVG/1.1/DTD/svg11.dtd'><svg enable-background="new 0 0 91 91" height="91px" id="Layer_1" version="1.1" viewBox="0 0 91 91" width="91px" xml:space="preserve" xmlns="http://www.w3.org/2000/svg" xmlns:xlink="http://www.w3.org/1999/xlink"><g><g><polygon fill="#6EC4A7" points="54.156,50.029 62.664,28.403 41.039,36.917   "/><polygon fill="#6EC4A7" points="28.512,62.557 50.141,54.047 37.025,40.933   "/><path d="M77.324,13.743C68.848,5.267,57.576,0.601,45.586,0.601c-11.984,0-23.256,4.666-31.734,13.143    C5.375,22.22,0.707,33.492,0.707,45.48c0,11.987,4.668,23.258,13.145,31.731c8.479,8.479,19.75,13.148,31.734,13.148    c11.99,0,23.262-4.67,31.738-13.148C94.822,59.713,94.822,31.242,77.324,13.743z M70.338,24.409L57.852,56.143    c-0.012,0.035-0.039,0.063-0.053,0.098c-0.047,0.111-0.111,0.211-0.172,0.314c-0.059,0.098-0.117,0.195-0.188,0.287    c-0.072,0.092-0.15,0.17-0.234,0.252c-0.082,0.08-0.162,0.162-0.254,0.236c-0.09,0.072-0.191,0.129-0.293,0.189    c-0.1,0.059-0.197,0.119-0.303,0.168c-0.037,0.014-0.066,0.041-0.104,0.055L24.521,70.23c-0.34,0.131-0.691,0.197-1.043,0.197    c-0.738,0-1.465-0.289-2.008-0.832c-0.799-0.799-1.047-1.996-0.635-3.047l12.492-31.725c0.012-0.035,0.039-0.066,0.051-0.1    c0.051-0.109,0.109-0.211,0.174-0.313c0.057-0.1,0.117-0.199,0.189-0.291c0.066-0.088,0.146-0.164,0.227-0.244    c0.084-0.088,0.168-0.172,0.264-0.246c0.086-0.066,0.178-0.121,0.27-0.178c0.111-0.064,0.215-0.129,0.338-0.18    c0.029-0.016,0.055-0.037,0.088-0.051l31.729-12.493c1.053-0.414,2.248-0.168,3.047,0.633    C70.504,22.161,70.752,23.358,70.338,24.409z" fill="#647F94"/></g></g></svg>