<?xml version="1.0" encoding="utf-8"?>
<!-- Svg Vector Icons : http://www.onlinewebfonts.com/icon -->
<!DOCTYPE svg PUBLIC "-//W3C//DTD SVG 1.1//EN" "http://www.w3.org/Graphics/SVG/1.1/DTD/svg11.dtd">
<svg version="1.1" xmlns="http://www.w3.org/2000/svg" xmlns:xlink="http://www.w3.org/1999/xlink" x="0px" y="0px" viewBox="0 0 1000 1000" enable-background="new 0 0 1000 1000" xml:space="preserve">
<metadata> Svg Vector Icons : http://www.onlinewebfonts.com/icon </metadata>
<g><path d="M337.3,662.7h490V745H745v82.3h-82.3V745H337.3c-23,0-42.4-8.3-58.4-24.9c-16-16.6-23.9-35.7-23.9-57.4V337.3h-82.3V255H255v-82.3h82.3L337.3,662.7L337.3,662.7z M662.7,582.3v-245h-245V255h245c21.7,0,40.8,8,57.4,23.9c16.6,16,24.9,35.4,24.9,58.4v245H662.7L662.7,582.3z M501.9,10C629.5,10,740.2,53.4,834,140.2c93.8,86.8,145.8,193.3,156,319.6h-61.3c-7.6-76.6-33.2-145.5-76.6-206.7s-98.9-107.8-166.5-139.7L630.2,167l-155-155c3.8,0,8.3-0.3,13.4-0.9C493.6,10.4,498.1,10.1,501.9,10L501.9,10z M314.3,886.7l55.5-53.6l155,155c-3.8,0-8.3,0.3-13.4,0.9c-5.1,0.6-9.6,0.9-13.4,0.9c-127.6,0-238.3-43.4-332.1-130.2C72.2,773,20.2,666.5,10,540.2h61.3c7.6,76.6,33.2,145.5,76.6,206.7S246.7,854.7,314.3,886.7L314.3,886.7z"/></g>
</svg>