<?xml version="1.0" ?><!DOCTYPE svg  PUBLIC '-//W3C//DTD SVG 1.1//EN'  'http://www.w3.org/Graphics/SVG/1.1/DTD/svg11.dtd'><svg enable-background="new 0 0 91 91" height="91px" id="Layer_1" version="1.1" viewBox="0 0 91 91" width="91px" xml:space="preserve" xmlns="http://www.w3.org/2000/svg" xmlns:xlink="http://www.w3.org/1999/xlink"><g><g><path d="M64.639,44.64c-2.307,0-4.176-1.869-4.176-4.174V20.782c0-6.598-6.729-11.963-15-11.963h-0.541    c-8.275,0-15.004,5.365-15.004,11.963v19.684c0,2.305-1.869,4.174-4.176,4.174s-4.176-1.869-4.176-4.174V20.782    c0-11.201,10.477-20.313,23.355-20.313h0.541c12.873,0,23.35,9.111,23.35,20.313v19.684C68.813,42.771,66.943,44.64,64.639,44.64z    " fill="#647F94"/><path d="M45.547,30.593h-0.715c-15.26,0-27.678,10.625-27.678,23.688v12.416c0,13.063,12.418,23.689,27.678,23.689    h0.715c15.262,0,27.682-10.627,27.682-23.689V54.28C73.229,41.218,60.809,30.593,45.547,30.593z M49.367,69.505    c0,2.307-1.869,4.176-4.176,4.176s-4.174-1.869-4.174-4.176V53.272c0-2.305,1.867-4.174,4.174-4.174s4.176,1.869,4.176,4.174    V69.505z" fill="#95AEC2"/></g></g></svg>